<?xml version="1.0"?>
<svg xmlns="http://www.w3.org/2000/svg" xmlns:xlink="http://www.w3.org/1999/xlink" version="1.1" viewBox="0 0 26 26" enable-background="new 0 0 26 26" width="512px" height="512px" class=""><g><link xmlns="" type="text/css" id="dark-mode" rel="stylesheet" href="" class="active-path" style="fill:#FFA500" data-old_color="#C09191"/><style xmlns="" type="text/css" id="dark-mode-custom-style" class="active-path" style="fill:#FFA500" data-old_color="#C09191"/><path d="m.3,14c-0.2-0.2-0.3-0.5-0.3-0.7s0.1-0.5 0.3-0.7l1.4-1.4c0.4-0.4 1-0.4 1.4,0l.1,.1 5.5,5.9c0.2,0.2 0.5,0.2 0.7,0l13.4-13.9h0.1v-8.88178e-16c0.4-0.4 1-0.4 1.4,0l1.4,1.4c0.4,0.4 0.4,1 0,1.4l0,0-16,16.6c-0.2,0.2-0.4,0.3-0.7,0.3-0.3,0-0.5-0.1-0.7-0.3l-7.8-8.4-.2-.3z" data-original="#000000" class="active-path" data-old_color="#C09191" fill="#FFFFFF"/></g> </svg>
